<?xml version="1.0" encoding="utf-8"?>
<!-- Generator: Adobe Illustrator 16.0.0, SVG Export Plug-In . SVG Version: 6.00 Build 0)  -->
<!DOCTYPE svg PUBLIC "-//W3C//DTD SVG 1.1//EN" "http://www.w3.org/Graphics/SVG/1.1/DTD/svg11.dtd">
<svg version="1.1" id="arrow1" xmlns="http://www.w3.org/2000/svg" xmlns:xlink="http://www.w3.org/1999/xlink" x="0px"
	 y="0px" width="30px" height="30px" viewBox="0 0 30 30" enable-background="new 0 0 30 30" xml:space="preserve">
<g>
	<path fill="#04371D" d="M3.578,16.391L15.002,4.967l11.419,11.423h-1.041L15.002,6.01L4.621,16.391H3.578z M26.422,0.016H3.578
		v0.902h22.844V0.016z M4.583,23.551v0.742h2.105v5.506h0.855v-5.506h2.105v-0.742H4.583z M14.868,23.381
		c-1.057,0-1.853,0.387-2.391,1.158c-0.421,0.598-0.632,1.324-0.632,2.168c0,0.936,0.248,1.709,0.739,2.322
		c0.549,0.637,1.304,0.955,2.266,0.955c1.029,0,1.822-0.365,2.378-1.09c0.475-0.619,0.711-1.395,0.711-2.328
		c0-0.861-0.207-1.568-0.621-2.121C16.787,23.734,15.969,23.381,14.868,23.381z M14.952,29.23c-0.786,0-1.354-0.238-1.702-0.715
		c-0.353-0.475-0.526-1.059-0.526-1.75c0-0.867,0.204-1.521,0.612-1.965c0.409-0.445,0.935-0.666,1.581-0.666
		c0.666,0,1.195,0.221,1.578,0.672c0.385,0.447,0.576,1.039,0.576,1.775c0,0.695-0.166,1.311-0.498,1.846
		C16.236,28.963,15.698,29.23,14.952,29.23z M20.771,29.799h0.846v-2.643h1.951c0.625,0,1.092-0.18,1.393-0.539
		c0.305-0.363,0.455-0.787,0.455-1.275c0-0.568-0.17-1.006-0.508-1.322c-0.34-0.312-0.789-0.469-1.34-0.469h-2.797V29.799z
		 M24.564,25.346c0,0.408-0.119,0.693-0.357,0.855c-0.232,0.162-0.539,0.242-0.916,0.242h-1.674v-2.168h1.674
		c0.324,0,0.578,0.047,0.764,0.135C24.391,24.572,24.564,24.887,24.564,25.346z"/>
</g>
</svg>
